<svg version="1.1" id="Layer_1" xmlns="http://www.w3.org/2000/svg" xmlns:xlink="http://www.w3.org/1999/xlink" x="0px" y="0px"
	 width="100%" viewBox="0 0 222 227" enable-background="new 0 0 222 227" xml:space="preserve">
<path fill="#000000" opacity="1.000000" stroke="none" 
	d="
M223.000000,130.000000 
	C223.000000,162.592072 223.000000,195.184128 223.000000,228.000000 
	C191.979462,228.000000 160.958389,228.000000 129.596130,227.651276 
	C130.112122,226.870605 130.927032,226.206680 131.832870,226.041565 
	C145.060852,223.630508 157.422806,218.882629 169.075378,212.254150 
	C172.009598,210.585037 174.766373,208.603989 177.604691,206.766281 
	C177.479507,206.322403 177.354324,205.878510 177.229141,205.434616 
	C173.204697,205.157654 169.059952,205.402618 165.177979,204.507736 
	C152.574295,201.602356 140.028915,198.419540 127.544121,195.037064 
	C123.484955,193.937317 122.015198,194.860168 122.054085,199.043533 
	C122.143791,208.694687 122.030769,218.347733 122.000000,228.000000 
	C114.979050,228.000000 107.958107,228.000000 100.577538,227.596313 
	C100.359627,216.638794 100.510963,206.085052 100.604729,195.530777 
	C100.608154,195.144272 100.047577,194.752762 99.428123,194.469330 
	C82.091446,199.686661 65.101540,204.904312 47.094631,206.728394 
	C50.116806,209.357559 53.156986,211.582428 56.375153,213.510162 
	C68.026253,220.489365 80.639847,224.777603 94.122711,227.009552 
	C94.112183,227.563171 94.056091,227.781586 94.000000,228.000000 
	C63.073082,228.000000 32.146160,228.000000 1.000000,228.000000 
	C1.000000,197.312790 1.000000,166.625046 1.340103,135.591339 
	C2.055362,135.771240 2.699639,136.265457 2.765804,136.827698 
	C4.001611,147.329147 11.643776,151.580231 20.207827,155.220673 
	C36.096001,161.974457 51.917736,161.077545 67.860901,155.545166 
	C78.523201,151.845291 89.247742,148.324768 100.202606,144.415222 
	C100.646622,138.331665 100.989807,132.555954 100.956238,126.782440 
	C100.937622,123.581978 100.289238,120.385162 99.519058,117.164780 
	C97.645439,117.347740 96.115990,117.354515 94.719017,117.788094 
	C80.467316,122.211365 66.237160,126.704033 51.616493,131.166351 
	C48.810760,131.734222 46.389523,132.313049 43.638428,132.946991 
	C42.869690,133.079987 42.430809,133.157867 41.577980,133.191803 
	C39.779015,133.153305 38.394001,133.158752 36.675613,133.122787 
	C35.895206,133.052139 35.448170,133.022934 34.795795,132.699524 
	C33.562645,131.953049 32.554096,131.449173 31.503826,131.057053 
	C25.608597,128.856094 19.657536,126.796524 13.816743,124.460617 
	C9.562099,122.759064 7.248050,119.708702 7.851497,114.777039 
	C8.375124,110.497688 8.372203,106.153519 8.905128,101.875755 
	C12.543517,72.670570 26.469801,49.158051 49.227772,30.924740 
	C70.020813,14.265706 94.083817,7.606967 120.506554,10.004143 
	C154.189011,13.059950 180.045929,29.269772 198.303894,57.623787 
	C207.842834,72.437454 213.281723,88.717148 214.561172,106.291023 
	C215.675186,121.592842 216.875992,120.900024 202.403183,127.010735 
	C197.700684,128.996216 192.718811,130.320053 187.653625,131.982391 
	C187.442535,132.018280 187.022125,132.099701 186.644455,132.065887 
	C185.510529,132.069000 184.754288,132.105942 183.541199,132.107285 
	C175.958740,130.883774 168.696503,130.216614 161.738113,128.391113 
	C150.047531,125.324158 138.550201,121.520470 126.753754,117.778801 
	C124.649834,115.995544 122.763741,114.460243 120.893616,112.474503 
	C120.881432,111.025742 120.838409,110.027573 120.827553,109.029053 
	C120.754036,102.266693 121.430321,101.257744 127.763931,102.898392 
	C140.587143,106.220078 153.239258,110.199615 165.981400,113.839676 
	C167.977753,114.409988 170.674911,115.622604 172.020020,114.818520 
	C176.765579,111.981682 181.063950,108.396782 185.857941,104.854713 
	C181.838287,100.538429 178.350739,96.793495 174.530914,92.815361 
	C157.476364,92.459999 140.754105,92.337830 123.714172,92.100876 
	C122.899406,90.718918 122.096176,89.485329 121.952957,88.179352 
	C120.653236,76.328133 119.687218,64.436203 118.167892,52.614735 
	C117.270172,45.629753 116.152939,38.890278 120.088234,32.346897 
	C123.063187,27.400324 122.078300,22.327740 118.042320,18.857841 
	C115.059288,16.293205 106.146988,16.302351 102.935173,18.873344 
	C99.550270,21.582891 98.053535,27.843994 100.872887,32.051907 
	C105.423737,38.844093 104.747841,46.242474 103.564987,53.281689 
	C101.354301,66.437492 99.451202,79.541306 99.491470,92.932404 
	C82.036598,93.038727 65.048180,93.122719 47.796825,93.398613 
	C47.026218,94.244064 46.550144,94.925278 46.006096,95.547005 
	C38.633766,103.972015 38.695595,103.907448 46.158649,111.564621 
	C49.103378,114.585945 51.962029,115.747520 56.231693,114.065353 
	C71.313820,108.123306 86.530594,102.533791 102.900909,101.472107 
	C102.935921,105.989105 102.935921,110.052406 102.935921,114.063568 
	C108.180939,114.063568 113.107666,114.063568 118.020798,114.032631 
	C118.007202,114.001694 117.948158,114.034569 118.234894,114.264252 
	C121.828400,115.375008 121.923004,117.932823 122.007385,120.719971 
	C122.239876,128.398636 122.651268,136.071884 123.319122,143.922699 
	C136.270050,148.719086 148.677887,154.097244 161.571091,157.772934 
	C178.391876,162.568359 194.810730,160.610672 209.887817,150.917999 
	C209.920425,150.909592 209.944122,150.846542 210.283783,150.774734 
	C218.456268,147.793869 218.859665,140.480453 220.678528,133.945267 
	C221.073853,132.524841 222.206787,131.309692 223.000000,130.000000 
M34.486271,170.744629 
	C33.348179,170.558273 32.210083,170.371933 30.390026,169.877609 
	C24.146444,167.444794 17.902863,165.011963 11.659281,162.579147 
	C11.259694,162.930267 10.860107,163.281387 10.460521,163.632523 
	C14.183511,169.180908 17.913794,174.724426 21.627909,180.278748 
	C28.343164,190.321182 37.632301,195.189041 49.811634,195.005569 
	C66.418724,194.755417 81.605301,188.814972 97.832100,183.833725 
	C98.845757,182.974533 100.711548,182.141846 100.739220,181.251968 
	C100.975990,173.638168 100.955719,166.012054 100.760567,158.396088 
	C100.741920,157.668732 99.009865,156.985275 97.353516,156.475281 
	C82.557701,161.376160 67.761887,166.277039 52.040787,171.069565 
	C47.007351,171.101151 41.973919,171.132736 36.320568,171.123093 
	C35.906532,171.126938 35.492500,171.130783 34.486271,170.744629 
M125.584549,156.635925 
	C122.117142,155.609344 122.053093,158.051208 122.053963,160.264694 
	C122.056839,167.546295 122.167686,174.827850 122.497078,182.727386 
	C135.837433,186.533203 149.043808,190.931305 162.553787,193.987274 
	C177.703384,197.414108 191.273727,194.275146 201.191116,181.020828 
	C205.294540,175.536728 209.877457,170.375244 212.593567,162.742859 
	C210.436890,163.567154 209.392807,163.953796 208.357910,164.363678 
	C198.459778,168.283829 188.443130,172.829224 177.663132,171.741943 
	C169.058914,170.874130 160.599609,168.058548 152.220230,165.613235 
	C143.464127,163.057999 134.880447,159.911865 125.584549,156.635925 
z"/>
<path fill="#07492C" opacity="1.000000" stroke="none" 
	d="
M187.864731,131.946518 
	C192.718811,130.320053 197.700684,128.996216 202.403183,127.010735 
	C216.875992,120.900024 215.675186,121.592842 214.561172,106.291023 
	C213.281723,88.717148 207.842834,72.437454 198.303894,57.623787 
	C180.045929,29.269772 154.189011,13.059950 120.506554,10.004143 
	C94.083817,7.606967 70.020813,14.265706 49.227772,30.924740 
	C26.469801,49.158051 12.543517,72.670570 8.905128,101.875755 
	C8.372203,106.153519 8.375124,110.497688 7.851497,114.777039 
	C7.248050,119.708702 9.562099,122.759064 13.816743,124.460617 
	C19.657536,126.796524 25.608597,128.856094 31.503826,131.057053 
	C32.554096,131.449173 33.562645,131.953049 34.407791,132.714615 
	C26.987318,134.516464 21.527435,129.224106 14.758258,127.778961 
	C13.341799,127.045227 12.171891,126.519936 10.742105,125.796158 
	C8.989573,124.065300 7.496920,122.532928 5.999212,120.577072 
	C6.015999,116.591606 5.870022,113.146797 1.000000,113.000000 
	C1.000000,107.311958 1.000000,101.623917 1.340531,95.340584 
	C2.452603,92.599571 3.401871,90.499672 3.968612,88.301155 
	C10.770141,61.916420 24.874269,40.191795 46.299702,23.498867 
	C61.242157,11.856936 78.021645,4.123134 97.332092,2.922580 
	C98.589706,2.844392 99.778954,1.666403 101.000000,1.000000 
	C107.687645,1.000000 114.375290,1.000000 121.705612,1.334711 
	C123.874428,2.147935 125.368996,2.854932 126.931412,3.070747 
	C150.989456,6.393856 172.248611,15.608071 189.434341,33.106342 
	C204.767639,48.718483 215.334213,67.063461 220.327591,88.505997 
	C220.777954,90.439896 222.088776,92.173424 223.000000,94.000000 
	C223.000000,101.354256 223.000000,108.708504 222.782211,116.290627 
	C222.011475,114.352295 221.161514,112.212440 220.966553,110.014488 
	C220.543442,105.244576 220.687561,100.415314 220.083145,95.676224 
	C219.909698,94.316223 217.969055,93.181618 216.838684,91.943665 
	C216.274307,93.481354 215.150162,95.053978 215.243546,96.550636 
	C215.624908,102.663315 216.691513,108.741348 216.914551,114.853722 
	C217.185669,122.283455 214.228439,125.482109 207.154297,127.805527 
	C203.830719,128.897125 200.937836,131.240662 197.692276,132.655579 
	C196.199753,133.306259 194.309998,133.324814 192.633926,133.195374 
	C191.021667,133.070877 189.452713,132.385468 187.864731,131.946518 
z"/>
<path fill="#000000" opacity="1.000000" stroke="none" 
	d="
M100.531342,1.000000 
	C99.778954,1.666403 98.589706,2.844392 97.332092,2.922580 
	C78.021645,4.123134 61.242157,11.856936 46.299702,23.498867 
	C24.874269,40.191795 10.770141,61.916420 3.968612,88.301155 
	C3.401871,90.499672 2.452603,92.599571 1.340531,94.872650 
	C1.000000,63.737476 1.000000,32.474949 1.000000,1.000000 
	C34.020592,1.000000 67.041634,1.000000 100.531342,1.000000 
z"/>
<path fill="#000000" opacity="1.000000" stroke="none" 
	d="
M223.000000,93.531342 
	C222.088776,92.173424 220.777954,90.439896 220.327591,88.505997 
	C215.334213,67.063461 204.767639,48.718483 189.434341,33.106342 
	C172.248611,15.608071 150.989456,6.393856 126.931412,3.070747 
	C125.368996,2.854932 123.874428,2.147935 122.174149,1.334711 
	C155.590576,1.000000 189.181168,1.000000 223.000000,1.000000 
	C223.000000,31.687183 223.000000,62.374935 223.000000,93.531342 
z"/>
<path fill="#014F2F" opacity="1.000000" stroke="none" 
	d="
M187.653625,131.982391 
	C189.452713,132.385468 191.021667,133.070877 192.633926,133.195374 
	C194.309998,133.324814 196.199753,133.306259 197.692276,132.655579 
	C200.937836,131.240662 203.830719,128.897125 207.154297,127.805527 
	C214.228439,125.482109 217.185669,122.283455 216.914551,114.853722 
	C216.691513,108.741348 215.624908,102.663315 215.243546,96.550636 
	C215.150162,95.053978 216.274307,93.481354 216.838684,91.943665 
	C217.969055,93.181618 219.909698,94.316223 220.083145,95.676224 
	C220.687561,100.415314 220.543442,105.244576 220.966553,110.014488 
	C221.161514,112.212440 222.011475,114.352295 222.782211,116.759247 
	C223.000000,118.388893 223.000000,119.777779 222.830505,121.742340 
	C222.774017,123.212013 222.887009,124.106003 223.000000,125.000000 
	C223.000000,125.444443 223.000000,125.888893 222.811386,126.550720 
	C222.068756,127.182335 221.514740,127.596573 220.739441,128.256256 
	C217.780060,136.322220 216.625671,144.892166 209.944122,150.846542 
	C209.944122,150.846542 209.920425,150.909592 209.536316,150.953171 
	C206.317932,151.845139 203.526367,152.898026 200.640823,153.501221 
	C193.701111,154.951889 187.162109,159.978729 179.534622,155.948883 
	C178.868210,155.596786 177.710876,156.242783 176.772797,156.323761 
	C173.251114,156.627747 169.408783,157.935074 166.258698,156.979858 
	C154.830597,153.514465 143.521591,149.569809 132.416107,145.177719 
	C128.901474,143.787735 126.163902,140.432861 123.064285,137.511200 
	C123.066055,132.553894 122.686623,128.012421 123.258438,123.594055 
	C123.515038,121.611320 125.675209,119.874939 126.971573,118.026756 
	C138.550201,121.520470 150.047531,125.324158 161.738113,128.391113 
	C168.696503,130.216614 175.958740,130.883774 183.660919,132.313904 
	C185.165665,132.403961 186.093903,132.251831 187.022125,132.099701 
	C187.022125,132.099701 187.442535,132.018280 187.653625,131.982391 
z"/>
<path fill="#054B2D" opacity="1.000000" stroke="none" 
	d="
M122.437500,228.000000 
	C122.030769,218.347733 122.143791,208.694687 122.054085,199.043533 
	C122.015198,194.860168 123.484955,193.937317 127.544121,195.037064 
	C140.028915,198.419540 152.574295,201.602356 165.177979,204.507736 
	C169.059952,205.402618 173.204697,205.157654 177.229141,205.434616 
	C177.354324,205.878510 177.479507,206.322403 177.604691,206.766281 
	C174.766373,208.603989 172.009598,210.585037 169.075378,212.254150 
	C157.422806,218.882629 145.060852,223.630508 131.832870,226.041565 
	C130.927032,226.206680 130.112122,226.870605 129.127472,227.651276 
	C126.958336,228.000000 124.916664,228.000000 122.437500,228.000000 
z"/>
<path fill="#07492C" opacity="1.000000" stroke="none" 
	d="
M99.944435,144.723984 
	C89.247742,148.324768 78.523201,151.845291 67.860901,155.545166 
	C51.917736,161.077545 36.096001,161.974457 20.207827,155.220673 
	C11.643776,151.580231 4.001611,147.329147 2.765804,136.827698 
	C2.699639,136.265457 2.055362,135.771240 1.340103,135.122681 
	C1.000000,130.643097 1.000000,126.286201 1.331747,121.465584 
	C2.105825,121.002670 2.548156,121.003464 2.994592,121.445915 
	C3.972717,127.766052 4.478170,133.778809 6.108693,139.469177 
	C6.989028,142.541458 9.327682,145.603485 11.809732,147.738632 
	C22.534140,156.964096 35.916431,157.102005 49.022457,157.629181 
	C51.680290,157.736099 54.403030,155.550049 57.097790,155.545395 
	C65.282791,155.531265 72.181473,152.059692 79.116325,148.424820 
	C80.557281,147.669525 82.152603,146.968338 83.741074,146.777603 
	C89.813324,146.048508 95.439522,144.400879 99.959518,140.385529 
	C99.966095,142.095276 99.955261,143.409637 99.944435,144.723984 
z"/>
<path fill="#07492C" opacity="1.000000" stroke="none" 
	d="
M210.283783,150.774734 
	C216.625671,144.892166 217.780060,136.322220 221.080231,128.297821 
	C222.094894,128.062622 222.547440,128.031311 223.000000,128.000000 
	C223.000000,128.444443 223.000000,128.888901 223.000000,129.666672 
	C222.206787,131.309692 221.073853,132.524841 220.678528,133.945267 
	C218.859665,140.480453 218.456268,147.793869 210.283783,150.774734 
z"/>
<path fill="#1F513C" opacity="1.000000" stroke="none" 
	d="
M99.749847,194.363571 
	C100.047577,194.752762 100.608154,195.144272 100.604729,195.530777 
	C100.510963,206.085052 100.359627,216.638794 100.108963,227.596313 
	C98.285645,228.000000 96.571281,228.000000 94.428467,228.000000 
	C94.056091,227.781586 94.112183,227.563171 94.477203,226.913574 
	C98.548851,225.959351 100.073418,223.755722 100.001617,220.017242 
	C99.837410,211.467560 99.824318,202.914978 99.749847,194.363571 
z"/>
<path fill="#024F2F" opacity="1.000000" stroke="none" 
	d="
M2.990487,121.004272 
	C2.548156,121.003464 2.105825,121.002670 1.331747,121.000931 
	C1.000000,118.629440 1.000000,116.258888 1.000000,113.444168 
	C5.870022,113.146797 6.015999,116.591606 5.622502,120.577255 
	C4.497394,121.002045 3.743941,121.003159 2.990487,121.004272 
z"/>
<path fill="#07492C" opacity="1.000000" stroke="none" 
	d="
M223.000000,124.625000 
	C222.887009,124.106003 222.774017,123.212013 222.830505,122.159012 
	C223.000000,122.750000 223.000000,123.500000 223.000000,124.625000 
z"/>
<path fill="#000000" opacity="1.000000" stroke="none" 
	d="
M223.000000,127.750000 
	C222.547440,128.031311 222.094894,128.062622 221.301544,128.052368 
	C221.514740,127.596573 222.068756,127.182335 222.811386,126.884048 
	C223.000000,127.000000 223.000000,127.500000 223.000000,127.750000 
z"/>
<path fill="#044C2D" opacity="1.000000" stroke="none" 
	d="
M99.957932,92.910080 
	C99.451202,79.541306 101.354301,66.437492 103.564987,53.281689 
	C104.747841,46.242474 105.423737,38.844093 100.872887,32.051907 
	C98.053535,27.843994 99.550270,21.582891 102.935173,18.873344 
	C106.146988,16.302351 115.059288,16.293205 118.042320,18.857841 
	C122.078300,22.327740 123.063187,27.400324 120.088234,32.346897 
	C116.152939,38.890278 117.270172,45.629753 118.167892,52.614735 
	C119.687218,64.436203 120.653236,76.328133 121.952957,88.179352 
	C122.096176,89.485329 122.899406,90.718918 124.106369,92.217583 
	C126.783974,92.640732 128.751129,92.991364 130.719574,92.998695 
	C145.433975,93.053482 160.148605,93.040390 174.863174,93.048569 
	C178.350739,96.793495 181.838287,100.538429 185.857941,104.854713 
	C181.063950,108.396782 176.765579,111.981682 172.020020,114.818520 
	C170.674911,115.622604 167.977753,114.409988 165.981400,113.839676 
	C153.239258,110.199615 140.587143,106.220078 127.763931,102.898392 
	C121.430321,101.257744 120.754036,102.266693 120.827553,109.029053 
	C120.838409,110.027573 120.881432,111.025742 120.618332,112.629303 
	C119.534111,113.501213 118.741135,113.767891 117.948158,114.034569 
	C117.948158,114.034569 118.007202,114.001694 117.632538,113.887497 
	C114.664932,113.497528 112.076813,113.062798 109.477905,112.984047 
	C105.778076,112.871941 104.237770,111.346321 104.423805,107.474541 
	C104.525772,105.352356 103.424568,103.172348 102.865906,101.018417 
	C86.530594,102.533791 71.313820,108.123306 56.231693,114.065353 
	C51.962029,115.747520 49.103378,114.585945 46.158649,111.564621 
	C38.695595,103.907448 38.633766,103.972015 46.006096,95.547005 
	C46.550144,94.925278 47.026218,94.244064 48.187523,93.516022 
	C65.129669,93.590958 81.418106,93.753639 97.706940,93.847382 
	C98.455444,93.851685 99.207520,93.236656 99.957932,92.910080 
z"/>
<path fill="#024F2F" opacity="1.000000" stroke="none" 
	d="
M2.994592,121.445923 
	C3.743941,121.003159 4.497394,121.002045 5.627557,121.000748 
	C7.496920,122.532928 8.989573,124.065300 10.859068,126.111221 
	C11.968830,128.158829 12.701753,129.692886 13.991657,132.392761 
	C14.533601,130.036285 14.769205,129.011841 15.004808,127.987404 
	C21.527435,129.224106 26.987318,134.516464 34.613129,133.008804 
	C35.448170,133.022934 35.895206,133.052139 36.847137,133.273712 
	C38.898666,133.389297 40.445297,133.312531 41.991928,133.235748 
	C42.430809,133.157867 42.869690,133.079987 43.827980,133.114014 
	C47.360413,134.268417 50.162373,134.522385 52.000984,131.177307 
	C66.237160,126.704033 80.467316,122.211365 94.719017,117.788094 
	C96.115990,117.354515 97.645439,117.347740 99.529602,117.619339 
	C99.944572,125.393921 99.943344,132.692032 99.942108,139.990143 
	C95.439522,144.400879 89.813324,146.048508 83.741074,146.777603 
	C82.152603,146.968338 80.557281,147.669525 79.116325,148.424820 
	C72.181473,152.059692 65.282791,155.531265 57.097790,155.545395 
	C54.403030,155.550049 51.680290,157.736099 49.022457,157.629181 
	C35.916431,157.102005 22.534140,156.964096 11.809732,147.738632 
	C9.327682,145.603485 6.989028,142.541458 6.108693,139.469177 
	C4.478170,133.778809 3.972717,127.766052 2.994592,121.445923 
M34.516346,135.481308 
	C34.516346,135.481308 34.487877,135.481827 34.516346,135.481308 
z"/>
<path fill="#034D2E" opacity="1.000000" stroke="none" 
	d="
M126.221405,157.024048 
	C134.880447,159.911865 143.464127,163.057999 152.220230,165.613235 
	C160.599609,168.058548 169.058914,170.874130 177.663132,171.741943 
	C188.443130,172.829224 198.459778,168.283829 208.357910,164.363678 
	C209.392807,163.953796 210.436890,163.567154 212.593567,162.742859 
	C209.877457,170.375244 205.294540,175.536728 201.191116,181.020828 
	C191.273727,194.275146 177.703384,197.414108 162.553787,193.987274 
	C149.043808,190.931305 135.837433,186.533203 122.582672,182.281693 
	C122.892578,180.463409 123.306526,179.090881 123.306877,177.718231 
	C123.308098,172.923782 122.836586,168.102203 123.226845,163.346924 
	C123.405334,161.172028 125.173958,159.127640 126.221405,157.024048 
z"/>
<path fill="#034D2E" opacity="1.000000" stroke="none" 
	d="
M52.966068,171.177917 
	C67.761887,166.277039 82.557701,161.376160 97.936996,156.662766 
	C98.852623,164.840347 99.274323,172.829025 99.402588,180.822388 
	C99.418472,181.811951 97.873192,182.826569 97.051331,183.829559 
	C81.605301,188.814972 66.418724,194.755417 49.811634,195.005569 
	C37.632301,195.189041 28.343164,190.321182 21.627909,180.278748 
	C17.913794,174.724426 14.183511,169.180908 10.460521,163.632523 
	C10.860107,163.281387 11.259694,162.930267 11.659281,162.579147 
	C17.902863,165.011963 24.146444,167.444794 30.958508,170.169769 
	C32.710812,170.686172 33.894638,170.910400 35.078465,171.134628 
	C35.492500,171.130783 35.906532,171.126938 36.960690,171.326843 
	C42.722565,171.413040 47.844315,171.295486 52.966068,171.177917 
z"/>
<path fill="#044C2D" opacity="1.000000" stroke="none" 
	d="
M99.428123,194.469330 
	C99.824318,202.914978 99.837410,211.467560 100.001617,220.017242 
	C100.073418,223.755722 98.548851,225.959351 94.431625,226.578384 
	C80.639847,224.777603 68.026253,220.489365 56.375153,213.510162 
	C53.156986,211.582428 50.116806,209.357559 47.094631,206.728394 
	C65.101540,204.904312 82.091446,199.686661 99.428123,194.469330 
z"/>
<path fill="#07492C" opacity="1.000000" stroke="none" 
	d="
M123.070709,137.977203 
	C126.163902,140.432861 128.901474,143.787735 132.416107,145.177719 
	C143.521591,149.569809 154.830597,153.514465 166.258698,156.979858 
	C169.408783,157.935074 173.251114,156.627747 176.772797,156.323761 
	C177.710876,156.242783 178.868210,155.596786 179.534622,155.948883 
	C187.162109,159.978729 193.701111,154.951889 200.640823,153.501221 
	C203.526367,152.898026 206.317932,151.845139 209.503723,150.961578 
	C194.810730,160.610672 178.391876,162.568359 161.571091,157.772934 
	C148.677887,154.097244 136.270050,148.719086 123.323112,143.513519 
	C123.023483,141.278366 123.047096,139.627777 123.070709,137.977203 
z"/>
<path fill="#1B523B" opacity="1.000000" stroke="none" 
	d="
M99.491470,92.932404 
	C99.207520,93.236656 98.455444,93.851685 97.706940,93.847382 
	C81.418106,93.753639 65.129669,93.590958 48.450455,93.324127 
	C65.048180,93.122719 82.036598,93.038727 99.491470,92.932404 
z"/>
<path fill="#1C3E2E" opacity="1.000000" stroke="none" 
	d="
M174.530914,92.815369 
	C160.148605,93.040390 145.433975,93.053482 130.719574,92.998695 
	C128.751129,92.991364 126.783974,92.640732 124.424026,92.332367 
	C140.754105,92.337830 157.476364,92.459999 174.530914,92.815369 
z"/>
<path fill="#1E4533" opacity="1.000000" stroke="none" 
	d="
M123.064285,137.511200 
	C123.047096,139.627777 123.023483,141.278366 122.995880,143.338104 
	C122.651268,136.071884 122.239876,128.398636 122.007385,120.719971 
	C121.923004,117.932823 121.828400,115.375008 118.234894,114.264252 
	C118.741135,113.767891 119.534111,113.501213 120.602371,113.079735 
	C122.763741,114.460243 124.649834,115.995544 126.753754,117.778809 
	C125.675209,119.874939 123.515038,121.611320 123.258438,123.594055 
	C122.686623,128.012421 123.066055,132.553894 123.064285,137.511200 
z"/>
<path fill="#19402E" opacity="1.000000" stroke="none" 
	d="
M102.900909,101.472107 
	C103.424568,103.172348 104.525772,105.352356 104.423805,107.474541 
	C104.237770,111.346321 105.778076,112.871941 109.477905,112.984047 
	C112.076813,113.062798 114.664932,113.497528 117.646133,113.918434 
	C113.107666,114.063568 108.180939,114.063568 102.935921,114.063568 
	C102.935921,110.052406 102.935921,105.989105 102.900909,101.472107 
z"/>
<path fill="#1B4835" opacity="1.000000" stroke="none" 
	d="
M125.902977,156.829987 
	C125.173958,159.127640 123.405334,161.172028 123.226845,163.346924 
	C122.836586,168.102203 123.308098,172.923782 123.306877,177.718231 
	C123.306526,179.090881 122.892578,180.463409 122.452667,181.972717 
	C122.167686,174.827850 122.056839,167.546295 122.053963,160.264694 
	C122.053093,158.051208 122.117142,155.609344 125.902977,156.829987 
z"/>
<path fill="#23503C" opacity="1.000000" stroke="none" 
	d="
M97.441711,183.831635 
	C97.873192,182.826569 99.418472,181.811951 99.402588,180.822388 
	C99.274323,172.829025 98.852623,164.840347 98.296860,156.565857 
	C99.009865,156.985275 100.741920,157.668732 100.760567,158.396088 
	C100.955719,166.012054 100.975990,173.638168 100.739220,181.251968 
	C100.711548,182.141846 98.845757,182.974533 97.441711,183.831635 
z"/>
<path fill="#21533E" opacity="1.000000" stroke="none" 
	d="
M99.959518,140.385529 
	C99.943344,132.692032 99.944572,125.393921 99.935257,117.641258 
	C100.289238,120.385162 100.937622,123.581978 100.956238,126.782440 
	C100.989807,132.555954 100.646622,138.331665 100.202606,144.415222 
	C99.955261,143.409637 99.966095,142.095276 99.959518,140.385529 
z"/>
<path fill="#1A412C" opacity="1.000000" stroke="none" 
	d="
M52.503426,171.123749 
	C47.844315,171.295486 42.722565,171.413040 37.270645,171.347458 
	C41.973919,171.132736 47.007351,171.101151 52.503426,171.123749 
z"/>
<path fill="#07492C" opacity="1.000000" stroke="none" 
	d="
M51.616493,131.166351 
	C50.162373,134.522385 47.360413,134.268417 44.157837,133.058899 
	C46.389523,132.313049 48.810760,131.734222 51.616493,131.166351 
z"/>
<path fill="#07492C" opacity="1.000000" stroke="none" 
	d="
M186.644455,132.065887 
	C186.093903,132.251831 185.165665,132.403961 184.117737,132.349487 
	C184.754288,132.105942 185.510529,132.069000 186.644455,132.065887 
z"/>
<path fill="#07492C" opacity="1.000000" stroke="none" 
	d="
M41.577980,133.191803 
	C40.445297,133.312531 38.898666,133.389297 37.180511,133.315140 
	C38.394001,133.158752 39.779015,133.153305 41.577980,133.191803 
z"/>
<path fill="#1A412C" opacity="1.000000" stroke="none" 
	d="
M34.782368,170.939621 
	C33.894638,170.910400 32.710812,170.686172 31.299488,170.323761 
	C32.210083,170.371933 33.348179,170.558273 34.782368,170.939621 
z"/>
<path fill="#024F2F" opacity="1.000000" stroke="none" 
	d="
M14.758257,127.778961 
	C14.769205,129.011841 14.533601,130.036285 13.991657,132.392761 
	C12.701753,129.692886 11.968830,128.158829 11.118946,126.309708 
	C12.171891,126.519936 13.341799,127.045227 14.758257,127.778961 
z"/>
<path fill="#07492C" opacity="1.000000" stroke="none" 
	d="
M34.502113,135.481567 
	C34.487877,135.481827 34.516346,135.481308 34.502113,135.481567 
z"/>
</svg>